Coordinates
version=1
nRows=20
nColumns=38
inDegrees=no

Units are S.I. units (second, meters, Newtons, ...)
If the header above contains a line with 'inDegrees', this indicates whether rotational values are in degrees (yes) or radians (no).

endheader
time	pelvis_tilt	pelvis_list	pelvis_rotation	pelvis_tx	pelvis_ty	pelvis_tz	hip_flexion_r	hip_adduction_r	hip_rotation_r	knee_angle_r	ankle_angle_r	subtalar_angle_r	mtp_angle_r	hip_flexion_l	hip_adduction_l	hip_rotation_l	knee_angle_l	ankle_angle_l	subtalar_angle_l	mtp_angle_l	lumbar_extension	lumbar_bending	lumbar_rotation	arm_flex_r	arm_add_r	arm_rot_r	elbow_flex_r	pro_sup_r	wrist_flex_r	wrist_dev_r	arm_flex_l	arm_add_l	arm_rot_l	elbow_flex_l	pro_sup_l	wrist_flex_l	wrist_dev_l
0.89	-0.778905	1.42272	2.24986	0.597473	1.5892	1.02021	0.496256	-0.12411	0.0658747	1.33642	-0.230887	0	0	0.360959	0.0199693	-0.276421	0.631242	0.13175	0	0	0.134367	-0.088656	0.079428	-0.00942241	-0.383162	0.737375	0.623361	1.06066	0	0	0.0301177	-0.284286	0.833953	0.257608	1.21809	0	0
0.9	-0.75969	1.42787	2.2342	0.597228	1.59939	1.02157	0.51784	-0.11875	0.0611309	1.33464	-0.21643	0	0	0.343698	0.0171657	-0.27457	0.624416	0.135811	0	0	0.129295	-0.0816842	0.0711297	-0.0136401	-0.377608	0.758383	0.600795	1.05052	0	0	0.0420187	-0.289897	0.825064	0.267899	1.22696	0	0
0.91	-0.733627	1.43273	2.21313	0.596939	1.60968	1.02286	0.537955	-0.113462	0.0541888	1.32745	-0.202495	0	0	0.326461	0.0144918	-0.271421	0.617414	0.141325	0	0	0.125268	-0.0744789	0.0618225	-0.0187679	-0.371195	0.778249	0.577322	1.03908	0	0	0.0533988	-0.295595	0.815318	0.278527	1.23563	0	0
0.92	-0.700778	1.43751	2.18635	0.596586	1.62	1.02405	0.556686	-0.108146	0.0458306	1.31569	-0.188562	0	0	0.310228	0.0108682	-0.269603	0.61233	0.147308	0	0	0.121894	-0.0668153	0.0516397	-0.0241936	-0.364654	0.798321	0.553452	1.02857	0	0	0.0641159	-0.301465	0.804402	0.289905	1.24389	0	0
0.93	-0.665553	1.44158	2.15686	0.596311	1.63023	1.02507	0.574674	-0.102994	0.0377537	1.29998	-0.173255	0	0	0.294419	0.00722195	-0.268052	0.606495	0.152852	0	0	0.119014	-0.0594857	0.0422787	-0.0297315	-0.357276	0.818574	0.528418	1.0178	0	0	0.0746195	-0.307698	0.792673	0.30212	1.25228	0	0
0.94	-0.63029	1.44538	2.12688	0.596149	1.64049	1.02598	0.591192	-0.0976328	0.0311262	1.28078	-0.156629	0	0	0.278222	0.00334247	-0.266912	0.598953	0.156885	0	0	0.116279	-0.05238	0.0336104	-0.0356756	-0.349398	0.838606	0.50322	1.00607	0	0	0.0847396	-0.31387	0.779643	0.314793	1.25994	0	0
0.95	-0.586368	1.44848	2.08878	0.595959	1.65079	1.02673	0.606857	-0.0921213	0.0248676	1.25781	-0.139474	0	0	0.263535	-0.0012904	-0.264305	0.591535	0.159708	0	0	0.114783	-0.044678	0.024442	-0.0422969	-0.341473	0.858235	0.478241	0.993498	0	0	0.0943411	-0.319408	0.766172	0.326737	1.26736	0	0
0.96	-0.537556	1.45186	2.04721	0.595675	1.66103	1.02741	0.62014	-0.0871143	0.0176744	1.23082	-0.122735	0	0	0.249636	-0.0062088	-0.258498	0.585109	0.162085	0	0	0.112769	-0.036437	0.0136237	-0.0488672	-0.333392	0.877402	0.453375	0.980021	0	0	0.103668	-0.324799	0.752316	0.338822	1.27478	0	0
0.97	-0.494247	1.45444	2.0093	0.595545	1.67111	1.02789	0.632443	-0.0822051	0.0134172	1.20065	-0.105625	0	0	0.235757	-0.0106284	-0.254801	0.578061	0.164304	0	0	0.110754	-0.0289689	0.0046497	-0.0554573	-0.325497	0.896487	0.429461	0.965631	0	0	0.112514	-0.330328	0.737244	0.35189	1.28203	0	0
0.98	-0.453141	1.4557	1.97202	0.595517	1.68109	1.02812	0.644281	-0.0774577	0.011859	1.16721	-0.0881175	0	0	0.22273	-0.0146811	-0.253029	0.571233	0.167321	0	0	0.109694	-0.0220265	-0.00270502	-0.0622209	-0.318298	0.916038	0.406915	0.951497	0	0	0.120743	-0.335688	0.721336	0.365245	1.28945	0	0
0.99	-0.409202	1.45562	1.93198	0.59557	1.69113	1.02812	0.654912	-0.0731396	0.0111977	1.12991	-0.0699377	0	0	0.211028	-0.0187831	-0.251364	0.565151	0.170809	0	0	0.110343	-0.0152658	-0.0101949	-0.0698711	-0.311298	0.933961	0.385574	0.935416	0	0	0.128003	-0.340894	0.705233	0.378279	1.29731	0	0
1	-0.362886	1.4545	1.89019	0.595635	1.70126	1.02793	0.663651	-0.0695009	0.0113619	1.0884	-0.0507447	0	0	0.200141	-0.0227324	-0.248377	0.55931	0.174859	0	0	0.112339	-0.00851663	-0.0183659	-0.0783215	-0.304768	0.95116	0.365669	0.918115	0	0	0.134278	-0.345876	0.688849	0.391094	1.30572	0	0
1.01	-0.317473	1.45142	1.84969	0.595655	1.71144	1.02747	0.671615	-0.0670878	0.0126747	1.04275	-0.0321247	0	0	0.191119	-0.0262078	-0.245096	0.55404	0.179423	0	0	0.116572	-0.00218588	-0.0271271	-0.0871239	-0.298463	0.970364	0.346358	0.902229	0	0	0.139399	-0.350417	0.671998	0.403428	1.31445	0	0
1.02	-0.273963	1.4462	1.81137	0.595745	1.72168	1.02669	0.679053	-0.0654195	0.0154395	0.992827	-0.0153563	0	0	0.184178	-0.0294775	-0.241465	0.549067	0.184512	0	0	0.123427	0.00358996	-0.036095	-0.0974473	-0.292869	0.984912	0.329494	0.886678	0	0	0.14358	-0.355107	0.65705	0.415517	1.3222	0	0
1.03	-0.241931	1.44027	1.78272	0.596011	1.73184	1.02567	0.685104	-0.0636297	0.0223218	0.939195	0.000515588	0	0	0.177509	-0.0317914	-0.238918	0.544049	0.189147	0	0	0.130494	0.00839374	-0.0432057	-0.107827	-0.288317	0.998973	0.314959	0.869487	0	0	0.147336	-0.359831	0.641986	0.427798	1.33144	0	0
1.04	-0.215514	1.43317	1.75912	0.596345	1.742	1.02441	0.690086	-0.0617821	0.0318635	0.882203	0.0146609	0	0	0.171986	-0.0335488	-0.236487	0.538969	0.193038	0	0	0.138759	0.0126514	-0.0493448	-0.118927	-0.284825	1.00978	0.302758	0.854702	0	0	0.150758	-0.36426	0.628503	0.439648	1.33827	0	0
1.05	-0.193596	1.42493	1.74013	0.596703	1.75222	1.02291	0.693847	-0.0602043	0.0428749	0.821575	0.0282711	0	0	0.167681	-0.0347949	-0.2337	0.53412	0.197514	0	0	0.148498	0.0163305	-0.0554771	-0.13033	-0.281842	1.02047	0.291822	0.839291	0	0	0.153355	-0.368342	0.615007	0.450974	1.34549	0	0
1.06	-0.174086	1.41613	1.72391	0.597103	1.76255	1.02123	0.695947	-0.0588317	0.0544917	0.756853	0.040312	0	0	0.164243	-0.0360408	-0.230464	0.530193	0.202384	0	0	0.159176	0.0197349	-0.0617371	-0.142191	-0.279526	1.03015	0.282599	0.822297	0	0	0.155543	-0.371918	0.602242	0.461206	1.3533	0	0
1.07	-0.157571	1.40727	1.71079	0.597572	1.77298	1.01943	0.696042	-0.057488	0.0673707	0.688067	0.049779	0	0	0.161026	-0.0371664	-0.226884	0.527029	0.207384	0	0	0.170084	0.0228837	-0.0678382	-0.1542	-0.277577	1.03946	0.274574	0.804166	0	0	0.157359	-0.374953	0.589913	0.470537	1.36085	0	0
1.08	-0.143206	1.39884	1.69988	0.598069	1.78352	1.01756	0.693404	-0.0561812	0.0815164	0.614847	0.0553693	0	0	0.157488	-0.0382906	-0.223497	0.524339	0.212184	0	0	0.180645	0.0259599	-0.0739512	-0.16609	-0.276284	1.04772	0.267914	0.784654	0	0	0.158731	-0.377453	0.578073	0.479002	1.36827	0	0
